<svg width="44" height="44" viewBox="0 0 44 44" fill="none" xmlns="http://www.w3.org/2000/svg">
<rect x="1" y="1" width="42" height="42" rx="21" fill="#E3FAFC"/>
<rect x="1" y="1" width="42" height="42" rx="21" stroke="white" stroke-width="2"/>
<path d="M26.8457 31.0016H17.154C14.923 31.0016 13.1143 29.1929 13.1143 26.9619V19.903C13.1143 17.672 14.923 15.8633 17.154 15.8633H26.8457C29.0767 15.8633 30.8855 17.672 30.8855 19.903V26.9619C30.8855 29.1929 29.0767 31.0016 26.8457 31.0016Z" stroke="#22B8CF" stroke-width="1.5" stroke-linecap="round" stroke-linejoin="round"/>
<path d="M23.9689 25.3984H20.0352" stroke="#22B8CF" stroke-width="1.5" stroke-linecap="round" stroke-linejoin="round"/>
<path d="M22 23.4297V27.3634" stroke="#22B8CF" stroke-width="1.5" stroke-linecap="round" stroke-linejoin="round"/>
<path d="M25.3832 15.8615V14.9372C25.3832 13.8669 24.5163 13 23.446 13H20.5563C19.4861 13 18.6191 13.8669 18.6191 14.9372V15.8615" stroke="#22B8CF" stroke-width="1.5" stroke-linecap="round" stroke-linejoin="round"/>
<path d="M30.838 20.3828H13.1621" stroke="#22B8CF" stroke-width="1.5" stroke-linecap="round" stroke-linejoin="round"/>
</svg>
