<svg width="24" height="24" viewBox="0 0 24 24" fill="none" xmlns="http://www.w3.org/2000/svg">
<path d="M13.2591 18.3475H6.42182C4.53409 18.3475 3.35999 17.0156 3.35999 15.1307V8.02816C3.35999 6.14324 4.53409 4.81128 6.42088 4.81128H17.5791C19.4602 4.81128 20.64 6.14324 20.64 8.02816V9.94668" stroke="#2B8A3E" stroke-width="1.5" stroke-linecap="round" stroke-linejoin="round"/>
<path d="M16.5377 15.5511L18.5889 13.5L20.6391 15.5511" stroke="#2B8A3E" stroke-width="1.5" stroke-linecap="round" stroke-linejoin="round"/>
<path d="M18.5889 13.5L18.5892 18.3477" stroke="#2B8A3E" stroke-width="1.5" stroke-linecap="round" stroke-linejoin="round"/>
<path d="M6.44421 8.1731H7.79112" stroke="#2B8A3E" stroke-width="1.5" stroke-linecap="round" stroke-linejoin="round"/>
<path fill-rule="evenodd" clip-rule="evenodd" d="M9.80273 11.5803C9.80273 10.3671 10.7863 9.38443 11.9987 9.38443C13.212 9.38443 14.1956 10.3671 14.1956 11.5803C14.1956 12.7937 13.212 13.7763 11.9987 13.7763C10.7863 13.7763 9.80273 12.7937 9.80273 11.5803Z" stroke="#2B8A3E" stroke-width="1.5" stroke-linecap="round" stroke-linejoin="round"/>
</svg>
